<svg width="475" height="90" viewBox="0 0 475 90" fill="none" xmlns="http://www.w3.org/2000/svg"><path fill-rule="evenodd" clip-rule="evenodd" d="M418.5.5h43l12.9 12.9-29.512 29.512v26.456c0 1.024-.043 1.77-.128 2.24-.043.47-.235 1.024-.576 1.664-.597 1.152-2.261 1.728-4.992 1.728-2.987 0-4.736-.81-5.248-2.432-.256-.683-.384-1.77-.384-3.264V41.36L405.6 13.4 418.5.5ZM440 26.3l7.31 3.87-1.29-8.17 6.02-5.59-8.17-1.29L440 7.38l-3.87 7.31-8.17 1.29 6.02 6.02-1.29 8.17L440 26.3ZM.6 64.76c0 1.067.555 2.283 1.664 3.648l.576.704c.896 1.28 2.475 2.603 4.736 3.968 1.11.725 2.56 1.344 4.352 1.856 1.792.47 3.69.704 5.696.704 3.925 0 7.616-1.13 11.072-3.392 1.792-1.152 3.243-2.773 4.352-4.864 1.11-2.133 1.664-4.587 1.664-7.36 0-2.773-.555-5.099-1.664-6.976-1.067-1.92-2.41-3.264-4.032-4.032-1.621-.768-3.392-1.408-5.312-1.92-1.92-.555-3.69-.96-5.312-1.216-1.621-.256-2.987-.747-4.096-1.472-1.067-.725-1.6-1.664-1.6-2.816 0-1.195.448-2.112 1.344-2.752.939-.683 2.09-1.024 3.456-1.024 1.408 0 2.56.277 3.456.832.299.213.619.49.96.832.384.341.64.555.768.64 1.323.853 2.432 1.28 3.328 1.28 1.536 0 3.03-1.067 4.48-3.2 1.024-1.493 1.536-2.667 1.536-3.52 0-.853-.661-1.899-1.984-3.136l-1.6-1.216c-.81-.683-2.283-1.344-4.416-1.984-2.09-.683-4.416-1.024-6.976-1.024-4.821 0-8.64 1.408-11.456 4.224-2.773 2.773-4.16 6.037-4.16 9.792 0 2.73.533 5.077 1.6 7.04 1.11 1.92 2.475 3.328 4.096 4.224a36.912 36.912 0 0 0 5.248 2.368c1.877.64 3.627 1.11 5.248 1.408 1.621.299 2.965.79 4.032 1.472 1.11.64 1.664 1.45 1.664 2.432 0 3.243-1.984 4.864-5.952 4.864-.939 0-1.963-.32-3.072-.96-1.11-.683-1.963-1.387-2.56-2.112-2.133-2.133-3.797-3.2-4.992-3.2-1.195 0-2.325.512-3.392 1.536C1.517 62.2.6 63.651.6 64.76Zm42.497 5.248c2.858 3.243 6.442 4.864 10.752 4.864 1.706 0 3.285-.47 4.736-1.408a15.79 15.79 0 0 0 1.728-1.408c.597-.555.98-.981 1.152-1.28 0 1.024.213 1.899.64 2.624.597 1.024 2.197 1.536 4.8 1.536 2.645 0 4.288-.555 4.928-1.664.34-.597.533-1.13.576-1.6.085-.512.128-1.237.128-2.176V46.84c0-.981-.043-1.707-.128-2.176-.043-.512-.214-1.088-.512-1.728-.598-1.152-2.24-1.728-4.928-1.728-2.731 0-4.374.555-4.928 1.664-.342.64-.555 1.216-.64 1.728-.043.47-.064 1.195-.064 2.176v11.328c0 1.664-.534 3.008-1.6 4.032-1.024 1.024-2.39 1.536-4.096 1.536-1.664 0-3.008-.49-4.032-1.472-.982-.981-1.472-2.347-1.472-4.096v-11.2c0-1.493-.128-2.581-.384-3.264-.512-1.621-2.262-2.432-5.248-2.432-2.731 0-4.395.576-4.992 1.728-.3.64-.491 1.195-.576 1.664-.043.47-.064 1.216-.064 2.24v11.2c0 4.693 1.408 8.683 4.224 11.968Zm34.588-23.232v37.376c0 .981.021 1.707.064 2.176.085.47.277 1.003.576 1.6.341.597.896 1.024 1.664 1.28.81.256 1.877.384 3.2.384 1.323 0 2.368-.128 3.136-.384.768-.256 1.301-.704 1.6-1.344.341-.597.533-1.13.576-1.6.085-.47.128-1.195.128-2.176V71.16c1.579 1.963 4.117 2.944 7.616 2.944 3.499 0 6.784-1.643 9.856-4.928 3.115-3.285 4.672-7.104 4.672-11.456 0-4.352-1.557-8.17-4.672-11.456-3.115-3.285-6.421-4.928-9.92-4.928-3.456 0-5.995 1.11-7.616 3.328-.128-1.11-.597-1.941-1.408-2.496-.768-.597-2.283-.896-4.544-.896-2.261 0-3.69.576-4.288 1.728-.299.597-.49 1.13-.576 1.6-.043.47-.064 1.195-.064 2.176Zm11.2 11.008c0-1.365.49-2.624 1.472-3.776.981-1.152 2.283-1.728 3.904-1.728 1.664 0 3.008.576 4.032 1.728 1.024 1.11 1.536 2.368 1.536 3.776s-.555 2.667-1.664 3.776c-1.067 1.11-2.39 1.664-3.968 1.664-1.536 0-2.816-.555-3.84-1.664-.981-1.152-1.472-2.41-1.472-3.776Zm56.578 2.176c1.323-1.28 1.984-3.221 1.984-5.824 0-2.645-.725-5.077-2.176-7.296-2.773-4.181-7.125-6.272-13.056-6.272-5.205 0-9.557 1.621-13.056 4.864-3.456 3.2-5.184 7.488-5.184 12.864 0 4.267 1.344 8.128 4.032 11.584 1.365 1.792 3.264 3.243 5.696 4.352 2.475 1.067 5.291 1.6 8.448 1.6 9.088 0 13.632-1.899 13.632-5.696 0-.81-.277-1.792-.832-2.944-.981-1.92-2.155-2.88-3.52-2.88-.683 0-1.536.235-2.56.704l-.704.256c-1.408.512-3.349.768-5.824.768-1.408 0-2.816-.405-4.224-1.216-1.408-.81-2.112-1.813-2.112-3.008h15.168c1.579 0 3.008-.619 4.288-1.856Zm-9.088-6.016c0 1.365-.811 2.048-2.432 2.048h-8.064c0-1.28.683-2.475 2.048-3.584 1.365-1.152 2.731-1.728 4.096-1.728 1.408 0 2.475.299 3.2.896.768.597 1.152 1.387 1.152 2.368ZM176.519 43a4.037 4.037 0 0 0-1.984-1.344 12.774 12.774 0 0 0-2.24-.512c-.683-.128-1.536-.192-2.56-.192-.982 0-2.134.363-3.456 1.088-1.323.725-2.198 1.301-2.624 1.728-.384.427-.683.79-.896 1.088 0-.725-.235-1.43-.704-2.112-.64-.981-2.24-1.472-4.8-1.472-2.731 0-4.395.576-4.992 1.728-.299.597-.491 1.152-.576 1.664-.043.47-.064 1.195-.064 2.176v24.32c.085 1.237.469 2.155 1.152 2.752.896.725 2.368 1.088 4.416 1.088 2.688 0 4.352-.555 4.992-1.664.341-.64.533-1.195.576-1.664.085-.512.128-1.259.128-2.24v-13.44c0-1.152.49-2.133 1.472-2.944 1.024-.81 2.112-1.216 3.264-1.216 1.152 0 2.069.17 2.752.512a5.205 5.205 0 0 0 2.24.512c1.536 0 2.709-.81 3.52-2.432.81-1.621 1.216-3.115 1.216-4.48 0-1.365-.278-2.347-.832-2.944Zm35.074-14.528c-.811.256-1.387.704-1.728 1.344-.342.64-.555 1.216-.64 1.728-.043.47-.064 1.195-.064 2.176v13.12h-16.96V33.784c0-1.493-.107-2.603-.32-3.328-.555-1.579-2.326-2.368-5.312-2.368-2.731 0-4.395.576-4.992 1.728-.342.64-.555 1.216-.64 1.728-.043.47-.064 1.195-.064 2.176v35.52c0 1.493.128 2.603.384 3.328.512 1.579 2.261 2.368 5.248 2.368 2.73 0 4.394-.576 4.992-1.728.341-.64.533-1.195.576-1.664.085-.512.128-1.259.128-2.24V56.248h16.96V69.24c0 1.493.128 2.603.384 3.328.512 1.579 2.261 2.368 5.248 2.368 2.73 0 4.394-.576 4.992-1.728.341-.64.533-1.195.576-1.664.085-.512.128-1.259.128-2.24v-35.52c0-1.493-.107-2.603-.32-3.328-.214-.555-.512-.981-.896-1.28-.384-.299-.939-.555-1.664-.768-.726-.213-1.707-.32-2.944-.32-1.238 0-2.262.128-3.072.384Zm44.558 31.488c1.322-1.28 1.984-3.221 1.984-5.824 0-2.645-.726-5.077-2.176-7.296-2.774-4.181-7.126-6.272-13.056-6.272-5.206 0-9.558 1.621-13.056 4.864-3.456 3.2-5.184 7.488-5.184 12.864 0 4.267 1.344 8.128 4.032 11.584 1.365 1.792 3.264 3.243 5.696 4.352 2.474 1.067 5.29 1.6 8.448 1.6 9.088 0 13.632-1.899 13.632-5.696 0-.81-.278-1.792-.832-2.944-.982-1.92-2.155-2.88-3.52-2.88-.683 0-1.536.235-2.56.704l-.704.256c-1.408.512-3.35.768-5.824.768-1.408 0-2.816-.405-4.224-1.216-1.408-.81-2.112-1.813-2.112-3.008h15.168c1.578 0 3.008-.619 4.288-1.856Zm-9.088-6.016c0 1.365-.811 2.048-2.432 2.048h-8.064c0-1.28.682-2.475 2.048-3.584 1.365-1.152 2.73-1.728 4.096-1.728 1.408 0 2.474.299 3.2.896.768.597 1.152 1.387 1.152 2.368ZM287.206 43a4.032 4.032 0 0 0-1.984-1.344 12.753 12.753 0 0 0-2.24-.512c-.683-.128-1.536-.192-2.56-.192-.981 0-2.133.363-3.456 1.088-1.323.725-2.197 1.301-2.624 1.728-.384.427-.683.79-.896 1.088 0-.725-.235-1.43-.704-2.112-.64-.981-2.24-1.472-4.8-1.472-2.731 0-4.395.576-4.992 1.728-.299.597-.491 1.152-.576 1.664-.043.47-.064 1.195-.064 2.176v24.32c.085 1.237.469 2.155 1.152 2.752.896.725 2.368 1.088 4.416 1.088 2.688 0 4.352-.555 4.992-1.664.341-.64.533-1.195.576-1.664.085-.512.128-1.259.128-2.24v-13.44c0-1.152.491-2.133 1.472-2.944 1.024-.81 2.112-1.216 3.264-1.216 1.152 0 2.069.17 2.752.512a5.205 5.205 0 0 0 2.24.512c1.536 0 2.709-.81 3.52-2.432.811-1.621 1.216-3.115 1.216-4.48 0-1.365-.277-2.347-.832-2.944Zm6.833 2.496c-3.584 3.328-5.376 7.552-5.376 12.672 0 3.413.896 6.485 2.688 9.216 1.834 2.688 4.074 4.736 6.72 6.144 2.645 1.365 5.376 2.048 8.192 2.048s5.525-.64 8.128-1.92c2.645-1.323 4.885-3.35 6.72-6.08 1.834-2.773 2.752-5.93 2.752-9.472 0-5.12-1.771-9.323-5.312-12.608-3.542-3.328-7.616-4.992-12.224-4.992-4.608 0-8.704 1.664-12.288 4.992Zm12.16 18.816c-1.408 0-2.795-.512-4.16-1.536-1.366-1.067-2.048-2.624-2.048-4.672 0-2.09.661-3.67 1.984-4.736 1.322-1.067 2.752-1.6 4.288-1.6 1.536 0 2.965.512 4.288 1.536 1.322 1.024 1.984 2.581 1.984 4.672 0 2.09-.704 3.67-2.112 4.736-1.408 1.067-2.816 1.6-4.224 1.6Zm82.338 2.816-17.28-35.712c-1.109-2.219-2.816-3.328-5.12-3.328-1.067 0-2.091.299-3.072.896a5.648 5.648 0 0 0-2.112 2.368l-17.28 35.776c-.725 1.45-1.088 2.539-1.088 3.264 0 1.536 1.237 2.901 3.712 4.096 1.451.725 2.581 1.088 3.392 1.088.853 0 1.536-.192 2.048-.576.555-.427.939-.832 1.152-1.216.256-.384.597-1.003 1.024-1.856l3.328-6.912h17.728l3.328 6.912.96 1.92c.256.427.64.832 1.152 1.216.555.384 1.237.576 2.048.576.853 0 2.005-.363 3.456-1.088 2.475-1.237 3.712-2.624 3.712-4.16 0-.725-.363-1.813-1.088-3.264Zm-26.688-11.584 4.224-8.768 4.288 8.768h-8.512Zm65.898-2.88c1.109-2.261 1.664-4.779 1.664-7.552 0-2.773-.555-5.29-1.664-7.552-1.11-2.261-2.539-4.053-4.288-5.376-3.542-2.73-7.19-4.096-10.944-4.096h-13.696c-2.731 0-4.395.576-4.992 1.728-.342.64-.555 1.216-.64 1.728-.043.47-.064 1.195-.064 2.176v35.52c0 1.493.128 2.603.384 3.328.512 1.579 2.261 2.368 5.248 2.368 2.73 0 4.394-.576 4.992-1.728.341-.64.533-1.195.576-1.664.085-.512.128-1.259.128-2.24v-7.232h8c3.797 0 7.466-1.365 11.008-4.096 1.749-1.323 3.178-3.093 4.288-5.312Zm-11.456-3.328c-1.238.939-2.496 1.408-3.776 1.408h-8.064V39.416h8c1.322 0 2.602.49 3.84 1.472 1.237.939 1.856 2.347 1.856 4.224 0 1.877-.619 3.285-1.856 4.224Z" fill="#F2E7AE"/></svg>